<?xml version="1.0" standalone="no"?>
<!DOCTYPE svg PUBLIC "-//W3C//DTD SVG 20010904//EN"
 "http://www.w3.org/TR/2001/REC-SVG-20010904/DTD/svg10.dtd">
<svg version="1.0" xmlns="http://www.w3.org/2000/svg"
 width="643.000000pt" height="643.000000pt" viewBox="0 0 643.000000 643.000000"
 preserveAspectRatio="xMidYMid meet">

<g transform="translate(0.000000,643.000000) scale(0.100000,-0.100000)"
fill="#000000" stroke="none">
<path d="M173 5323 c-29 -11 -5 -77 110 -312 34 -68 49 -71 320 -71 129 0 262
-3 296 -6 l61 -7 65 -133 c36 -73 65 -135 65 -138 0 -2 47 -100 104 -218 57
-117 115 -240 128 -273 l24 -59 -61 -40 c-122 -81 -215 -201 -250 -323 -36
-129 -26 -323 24 -430 53 -113 164 -221 275 -267 75 -31 84 -17 31 49 -72 88
-106 217 -85 321 27 131 105 235 221 296 l64 33 1080 0 1080 0 56 -26 c105
-49 181 -136 219 -250 31 -91 25 -212 -13 -292 -43 -87 -107 -151 -195 -194
l-76 -38 -293 -3 c-180 -2 -293 -7 -293 -13 0 -11 7 -27 214 -467 86 -183 156
-335 156 -338 0 -2 -172 -4 -383 -4 l-383 0 -52 107 c-28 60 -175 371 -326
693 l-276 585 -224 3 -225 2 55 -117 c31 -65 72 -152 91 -193 20 -41 69 -145
108 -230 65 -139 135 -287 309 -654 31 -65 56 -120 56 -121 0 -2 36 -78 80
-170 44 -92 87 -183 96 -203 42 -102 71 -106 697 -99 260 2 494 2 521 -2 55
-7 45 9 181 -274 56 -116 77 -148 130 -200 111 -112 254 -167 431 -167 199 0
342 72 476 238 23 29 83 150 92 185 9 38 -14 36 -73 -7 -104 -76 -190 -101
-334 -98 -88 1 -104 5 -164 34 -128 64 -156 102 -308 428 -160 342 -257 548
-285 603 -17 32 -30 62 -30 67 0 4 39 20 86 34 122 39 213 89 323 181 88 73
197 256 237 395 26 89 26 307 1 400 -60 222 -225 427 -417 517 -73 34 -172 71
-220 82 -29 7 -390 11 -1010 11 -531 0 -971 4 -978 9 -12 7 -133 245 -147 290
l-6 21 2030 0 c1117 0 2031 -2 2031 -3 0 -2 -48 -105 -106 -228 -118 -249
-379 -806 -414 -884 -13 -27 -56 -120 -98 -205 -41 -85 -106 -222 -144 -305
-39 -82 -115 -244 -171 -360 -55 -115 -115 -242 -133 -281 -17 -39 -40 -74
-49 -78 -9 -3 -90 -6 -180 -6 l-164 0 23 -52 c13 -29 55 -119 94 -201 l71
-147 210 0 211 0 44 92 c24 51 94 199 156 328 62 129 126 264 142 300 17 36
46 99 65 140 20 41 50 107 68 145 18 39 56 120 85 180 29 61 83 175 120 255
70 151 187 399 284 604 31 65 56 119 56 121 0 1 33 72 74 156 40 85 102 215
136 289 35 74 95 203 135 286 113 236 115 248 48 258 -21 3 -1112 5 -2426 3
l-2387 -2 -25 30 c-29 36 -68 114 -124 248 -51 125 -72 154 -119 167 -37 10
-974 14 -999 3z"/>
</g>
</svg>
