<?xml version="1.0" standalone="no"?>
<!DOCTYPE svg PUBLIC "-//W3C//DTD SVG 20010904//EN"
 "http://www.w3.org/TR/2001/REC-SVG-20010904/DTD/svg10.dtd">
<svg version="1.0" xmlns="http://www.w3.org/2000/svg"
 width="512.000000pt" height="512.000000pt" viewBox="0 0 512.000000 512.000000"
 preserveAspectRatio="xMidYMid meet">

<g transform="translate(0.000000,512.000000) scale(0.100000,-0.100000)"
fill="#000000" stroke="none">
<path d="M2260 4684 c-555 -51 -932 -162 -1240 -367 -98 -65 -235 -203 -295
-295 -126 -196 -214 -462 -266 -802 -30 -196 -33 -665 -6 -860 50 -356 153
-660 289 -856 64 -93 204 -227 305 -293 43 -27 86 -56 95 -63 13 -10 27 -71
58 -253 45 -269 59 -310 141 -399 111 -122 292 -165 454 -110 27 10 190 111
361 225 171 114 326 215 344 224 25 13 77 19 232 26 803 34 1397 269 1652 652
137 206 233 494 283 847 25 177 25 643 0 820 -63 447 -187 768 -375 970 -247
266 -674 443 -1242 516 -120 15 -681 28 -790 18z m437 -830 c93 -57 146 -177
123 -280 -47 -212 -301 -283 -452 -127 -122 126 -87 332 72 416 50 26 62 29
132 25 63 -4 86 -10 125 -34z m-15 -800 c23 -18 53 -51 65 -75 23 -42 23 -45
23 -495 l0 -452 52 -12 c72 -18 140 -86 157 -156 24 -98 -20 -193 -110 -238
l-53 -26 -256 0 -256 0 -53 26 c-176 88 -144 348 49 394 l50 12 0 314 c0 243
-3 315 -12 318 -7 2 -32 9 -55 15 -184 50 -199 317 -23 395 28 13 69 15 207
13 l171 -2 44 -31z"/>
</g>
</svg>
