<?xml version="1.0" encoding="UTF-8"?>
<!DOCTYPE svg PUBLIC "-//W3C//DTD SVG 1.1//EN" "http://www.w3.org/Graphics/SVG/1.1/DTD/svg11.dtd">
<svg xmlns="http://www.w3.org/2000/svg" version="1.1" width="512px" height="512px" style="shape-rendering:geometricPrecision; text-rendering:geometricPrecision; image-rendering:optimizeQuality; fill-rule:evenodd; clip-rule:evenodd" xmlns:xlink="http://www.w3.org/1999/xlink">
<g><path style="opacity:0.942" fill="#000000" d="M 64.5,-0.5 C 166.167,-0.5 267.833,-0.5 369.5,-0.5C 380.973,3.73498 387.14,12.0683 388,24.5C 388.667,112.833 388.667,201.167 388,289.5C 386.567,297.427 382.067,299.927 374.5,297C 372.683,295.2 371.516,293.034 371,290.5C 370.667,200.833 370.333,111.167 370,21.5C 368.272,18.0474 365.438,16.2141 361.5,16C 265.167,15.3333 168.833,15.3333 72.5,16C 69.5424,16.2293 67.0424,17.396 65,19.5C 63.3372,142.086 63.0039,264.753 64,387.5C 65.5429,389.378 67.3762,390.878 69.5,392C 119.833,392.333 170.167,392.667 220.5,393C 225.069,395.541 226.569,399.375 225,404.5C 223.773,406.726 221.939,408.226 219.5,409C 168.833,409.667 118.167,409.667 67.5,409C 56.8554,407.021 50.0221,400.854 47,390.5C 46.3333,266.167 46.3333,141.833 47,17.5C 49.6834,8.318 55.5167,2.318 64.5,-0.5 Z"/></g>
<g><path style="opacity:0.925" fill="#000000" d="M 130.5,75.5 C 139.723,77.689 142.056,82.8557 137.5,91C 132.915,92.5845 128.248,93.9178 123.5,95C 113.854,101.811 112.021,110.311 118,120.5C 128.758,130.431 138.424,129.431 147,117.5C 147.909,113.46 148.909,109.46 150,105.5C 154.344,100.564 159.01,100.231 164,104.5C 166.917,121.831 160.417,134.331 144.5,142C 124.428,148.039 109.595,141.872 100,123.5C 93.4906,102.691 99.9906,87.5246 119.5,78C 123.28,77.082 126.946,76.2487 130.5,75.5 Z"/></g>
<g><path style="opacity:0.931" fill="#000000" d="M 188.5,84.5 C 224.835,84.3333 261.168,84.5 297.5,85C 302.609,88.3662 303.776,92.8662 301,98.5C 300.097,99.7014 298.931,100.535 297.5,101C 261.167,101.667 224.833,101.667 188.5,101C 180.605,95.5115 180.605,90.0115 188.5,84.5 Z"/></g>
<g><path style="opacity:0.934" fill="#000000" d="M 188.5,118.5 C 235.835,118.333 283.168,118.5 330.5,119C 336.542,121.837 338.042,126.337 335,132.5C 334.097,133.701 332.931,134.535 331.5,135C 283.5,135.667 235.5,135.667 187.5,135C 180.829,129.152 181.162,123.652 188.5,118.5 Z"/></g>
<g><path style="opacity:0.923" fill="#000000" d="M 123.5,170.5 C 127.514,170.334 131.514,170.501 135.5,171C 140.537,175.124 141.204,179.791 137.5,185C 131.607,186.475 125.94,188.475 120.5,191C 112.278,200.33 112.611,209.33 121.5,218C 131.95,223.63 140.45,221.463 147,211.5C 147.909,207.46 148.909,203.46 150,199.5C 155.4,194.048 160.4,194.381 165,200.5C 165.042,226.124 152.208,238.624 126.5,238C 105.356,232.836 95.8561,219.336 98,197.5C 101.586,183.75 110.086,174.75 123.5,170.5 Z"/></g>
<g><path style="opacity:0.927" fill="#000000" d="M 188.5,178.5 C 210.503,178.333 232.503,178.5 254.5,179C 259.069,181.541 260.569,185.375 259,190.5C 258.167,192.667 256.667,194.167 254.5,195C 232.167,195.667 209.833,195.667 187.5,195C 180.777,189.024 181.11,183.524 188.5,178.5 Z"/></g>
<g><path style="opacity:0.938" fill="#000000" d="M 408.5,511.5 C 376.5,511.5 344.5,511.5 312.5,511.5C 279.365,503.521 260.198,482.521 255,448.5C 250,427.167 245,405.833 240,384.5C 236.535,369.499 238.868,355.499 247,342.5C 256.303,332.196 265.97,322.196 276,312.5C 276.333,277.5 276.667,242.5 277,207.5C 280.983,185.095 294.15,175.928 316.5,180C 326.52,184.018 333.02,191.185 336,201.5C 336.167,237.505 336.667,273.505 337.5,309.5C 347.553,305.283 357.219,306.116 366.5,312C 369.349,315.016 372.349,317.85 375.5,320.5C 392.233,311.559 406.399,314.559 418,329.5C 430.422,321.594 442.588,322.094 454.5,331C 458.115,334.619 460.949,338.786 463,343.5C 464.142,362.784 464.642,382.117 464.5,401.5C 464.636,421.208 464.136,440.874 463,460.5C 454.454,487.845 436.287,504.845 408.5,511.5 Z M 304.5,195.5 C 311.268,195.444 316.102,198.444 319,204.5C 319.009,254.583 319.676,304.583 321,354.5C 326.315,360.029 331.315,359.695 336,353.5C 336.108,346.089 336.775,338.755 338,331.5C 345.667,320.833 353.333,320.833 361,331.5C 362.258,341.427 362.924,351.427 363,361.5C 365.541,366.069 369.375,367.569 374.5,366C 375.931,365.535 377.097,364.701 378,363.5C 379.035,355.527 380.035,347.527 381,339.5C 387.89,330.566 395.224,330.233 403,338.5C 403.667,340.5 404.333,342.5 405,344.5C 405.333,353.167 405.667,361.833 406,370.5C 410.562,376.719 415.562,377.052 421,371.5C 422.225,364.245 422.892,356.911 423,349.5C 426.449,342.526 431.949,340.026 439.5,342C 441.96,343.458 444.127,345.291 446,347.5C 447.147,365.437 447.647,383.437 447.5,401.5C 447.634,420.208 447.134,438.875 446,457.5C 439.557,476.943 426.39,489.11 406.5,494C 375.833,494.667 345.167,494.667 314.5,494C 296.921,490.088 284.421,479.922 277,463.5C 269.826,436.296 263.159,408.963 257,381.5C 254.157,370.719 255.824,360.719 262,351.5C 266.667,346.833 271.333,342.167 276,337.5C 276.333,346.167 276.667,354.833 277,363.5C 278.756,369.964 282.923,372.13 289.5,370C 290.667,368.833 291.833,367.667 293,366.5C 293.333,314.167 293.667,261.833 294,209.5C 294.393,202.335 297.893,197.669 304.5,195.5 Z"/></g>
<g><path style="opacity:0.925" fill="#000000" d="M 189.5,212.5 C 210.836,212.333 232.169,212.5 253.5,213C 259.095,215.354 260.928,219.521 259,225.5C 257.833,226.667 256.667,227.833 255.5,229C 232.833,229.667 210.167,229.667 187.5,229C 182.699,225.887 181.532,221.72 184,216.5C 185.5,214.531 187.333,213.198 189.5,212.5 Z"/></g>
<g><path style="opacity:0.923" fill="#000000" d="M 123.5,264.5 C 127.514,264.334 131.514,264.501 135.5,265C 140.537,269.124 141.204,273.791 137.5,279C 131.643,280.475 125.976,282.475 120.5,285C 112.215,294.362 112.548,303.362 121.5,312C 131.95,317.63 140.45,315.463 147,305.5C 147.909,301.46 148.909,297.46 150,293.5C 155.4,288.048 160.4,288.381 165,294.5C 165.042,320.124 152.208,332.624 126.5,332C 105.345,326.827 95.8453,313.327 98,291.5C 101.577,277.759 110.077,268.759 123.5,264.5 Z"/></g>
<g><path style="opacity:0.927" fill="#000000" d="M 188.5,272.5 C 210.169,272.333 231.836,272.5 253.5,273C 258.906,274.98 260.739,278.814 259,284.5C 258.167,286.667 256.667,288.167 254.5,289C 232.167,289.667 209.833,289.667 187.5,289C 180.754,283.07 181.088,277.57 188.5,272.5 Z"/></g>
<g><path style="opacity:0.923" fill="#000000" d="M 189.5,306.5 C 204.837,306.333 220.17,306.5 235.5,307C 241.507,308.672 243.673,312.505 242,318.5C 241.215,320.286 240.049,321.786 238.5,323C 221.5,323.667 204.5,323.667 187.5,323C 182.699,319.887 181.532,315.72 184,310.5C 185.5,308.531 187.333,307.198 189.5,306.5 Z"/></g>
</svg>
