<?xml version="1.0" standalone="no"?>
<!DOCTYPE svg PUBLIC "-//W3C//DTD SVG 20010904//EN"
 "http://www.w3.org/TR/2001/REC-SVG-20010904/DTD/svg10.dtd">
<svg version="1.0" xmlns="http://www.w3.org/2000/svg"
 width="512.000000pt" height="512.000000pt" viewBox="0 0 512.000000 512.000000"
 preserveAspectRatio="xMidYMid meet">

<g transform="translate(0.000000,512.000000) scale(0.100000,-0.100000)"
fill="#000000" stroke="none">
<path d="M1295 4786 c-41 -18 -83 -69 -90 -109 -4 -18 -5 -101 -3 -184 3 -165
8 -180 72 -227 27 -21 37 -21 646 -21 609 0 619 0 646 21 67 49 69 58 69 253
l0 178 -29 37 c-51 68 -31 66 -688 66 -470 -1 -599 -4 -623 -14z"/>
<path d="M480 4587 c-49 -16 -133 -102 -148 -153 -18 -60 -18 -3888 0 -3948
16 -55 99 -138 154 -154 31 -9 242 -12 839 -12 l797 0 -6 22 c-3 13 -6 49 -6
81 l0 57 -790 0 -791 0 -24 25 -25 24 0 1931 0 1931 25 24 24 25 228 0 c240 1
247 2 272 48 16 30 7 65 -21 92 -21 19 -34 20 -257 19 -141 -1 -250 -5 -271
-12z"/>
<path d="M2829 4581 c-18 -14 -24 -29 -24 -61 0 -32 6 -47 24 -61 21 -17 42
-19 253 -19 l229 0 24 -25 25 -24 0 -831 0 -830 80 0 80 0 0 838 0 837 -24 51
c-27 59 -90 116 -145 132 -24 8 -123 12 -269 12 -211 0 -232 -2 -253 -19z"/>
<path d="M970 3535 l-116 -115 -43 44 c-24 25 -55 47 -69 51 -56 14 -112 -42
-98 -98 3 -12 43 -60 89 -105 123 -119 114 -121 310 76 126 127 157 164 157
186 0 38 -41 76 -81 76 -28 0 -49 -17 -149 -115z"/>
<path d="M1319 3507 c-44 -34 -47 -89 -7 -127 22 -20 31 -20 927 -20 697 1
910 3 922 13 44 34 47 89 7 127 -22 20 -31 20 -927 20 -697 -1 -910 -3 -922
-13z"/>
<path d="M970 2735 l-116 -115 -43 44 c-24 25 -55 47 -69 51 -56 14 -112 -42
-98 -98 3 -12 43 -60 89 -105 123 -119 114 -121 310 76 126 127 157 164 157
186 0 38 -41 76 -81 76 -28 0 -49 -17 -149 -115z"/>
<path d="M1319 2707 c-44 -34 -47 -89 -7 -127 21 -20 33 -20 515 -20 l493 0
112 76 c62 42 115 78 117 80 2 2 -270 4 -605 4 -463 -1 -613 -4 -625 -13z"/>
<path d="M2616 2563 c-22 -6 -355 -243 -375 -267 -15 -17 -161 -453 -161 -479
0 -10 13 -32 29 -48 l29 -29 1302 0 1302 0 29 29 c16 16 29 38 29 49 0 30
-149 464 -166 483 -8 9 -92 72 -187 140 l-172 124 -820 1 c-451 1 -829 0 -839
-3z m1649 -189 c30 -20 55 -38 55 -40 0 -2 -397 -4 -882 -4 l-883 0 55 40 55
39 773 1 772 0 55 -36z"/>
<path d="M970 1935 l-116 -115 -44 45 c-25 25 -55 48 -68 52 -54 13 -112 -45
-98 -100 3 -12 43 -60 89 -105 123 -119 114 -121 310 76 126 127 157 164 157
186 0 38 -41 76 -81 76 -28 0 -49 -17 -149 -115z"/>
<path d="M1319 1907 c-44 -34 -47 -89 -7 -127 21 -19 34 -20 319 -20 l297 0
-5 43 c-3 23 -1 59 5 80 l10 37 -301 0 c-222 -1 -306 -4 -318 -13z"/>
<path d="M2270 975 l0 -606 25 -24 24 -25 1121 0 1121 0 24 25 25 24 0 606 0
605 -1170 0 -1170 0 0 -605z"/>
<path d="M970 1135 l-116 -115 -44 45 c-25 25 -55 48 -68 52 -55 14 -111 -43
-97 -100 4 -14 44 -62 90 -106 120 -118 112 -120 308 77 126 127 157 164 157
186 0 38 -41 76 -81 76 -28 0 -49 -17 -149 -115z"/>
<path d="M1313 1100 c-12 -10 -24 -29 -28 -40 -10 -30 12 -75 41 -89 17 -7
144 -11 404 -11 l380 0 0 80 0 80 -388 0 c-372 0 -389 -1 -409 -20z"/>
</g>
</svg>
